<svg width="800" height="656" viewBox="0 0 800 656" fill="none" xmlns="http://www.w3.org/2000/svg">
<path d="M747.598 0.548492H52.4017C23.4603 0.548492 0 24.0087 0 52.9502V493.125C0 522.065 23.462 545.527 52.4017 545.527H283.144L359.899 636.781C369.855 648.618 384.533 655.453 400.002 655.453C415.471 655.453 430.147 648.62 440.105 636.781L516.859 545.527H747.598C776.538 545.527 800 522.065 800 493.125V52.9502C800 24.0087 776.538 0.548492 747.598 0.548492ZM565.792 419.762H144.723C130.253 419.762 118.522 408.031 118.522 393.562C118.522 379.092 130.253 367.361 144.723 367.361H565.792C580.262 367.361 591.993 379.092 591.993 393.562C591.993 408.031 580.262 419.762 565.792 419.762ZM118.522 275.17C118.522 260.7 130.253 248.969 144.723 248.969H468.047C482.517 248.969 494.248 260.7 494.248 275.17C494.248 289.64 482.517 301.371 468.047 301.371H144.723C130.253 301.371 118.522 289.64 118.522 275.17ZM655.277 182.976H144.723C130.253 182.976 118.522 171.245 118.522 156.776C118.522 142.306 130.253 130.575 144.723 130.575H655.275C669.745 130.575 681.476 142.306 681.476 156.776C681.478 171.245 669.747 182.976 655.277 182.976Z" fill="white"/>
</svg>
